<mxfile host="app.diagrams.net" modified="2023-09-18T07:13:23.413Z" agent="Mozilla/5.0 (Windows NT 10.0; Win64; x64) AppleWebKit/537.36 (KHTML, like Gecko) Chrome/117.0.0.0 Safari/537.36 Edg/117.0.2045.31" etag="HzKhe7zIZdiTi7oN4GcY" version="21.7.5" type="device">
  <diagram id="C5RBs43oDa-KdzZeNtuy" name="Page-1">
    <mxGraphModel dx="1042" dy="551" grid="1" gridSize="10" guides="1" tooltips="1" connect="1" arrows="1" fold="1" page="1" pageScale="1" pageWidth="827" pageHeight="1169" math="0" shadow="0">
      <root>
        <mxCell id="WIyWlLk6GJQsqaUBKTNV-0" />
        <mxCell id="WIyWlLk6GJQsqaUBKTNV-1" parent="WIyWlLk6GJQsqaUBKTNV-0" />
        <mxCell id="BvmSv9PaKKFq10cFC2QJ-6" style="edgeStyle=orthogonalEdgeStyle;rounded=0;orthogonalLoop=1;jettySize=auto;html=1;entryX=0.5;entryY=0;entryDx=0;entryDy=0;" edge="1" parent="WIyWlLk6GJQsqaUBKTNV-1" source="BvmSv9PaKKFq10cFC2QJ-0" target="BvmSv9PaKKFq10cFC2QJ-1">
          <mxGeometry relative="1" as="geometry" />
        </mxCell>
        <mxCell id="BvmSv9PaKKFq10cFC2QJ-0" value="START" style="ellipse;whiteSpace=wrap;html=1;" vertex="1" parent="WIyWlLk6GJQsqaUBKTNV-1">
          <mxGeometry x="354" y="40" width="120" height="80" as="geometry" />
        </mxCell>
        <mxCell id="BvmSv9PaKKFq10cFC2QJ-9" style="edgeStyle=orthogonalEdgeStyle;rounded=0;orthogonalLoop=1;jettySize=auto;html=1;entryX=0.5;entryY=0;entryDx=0;entryDy=0;" edge="1" parent="WIyWlLk6GJQsqaUBKTNV-1" source="BvmSv9PaKKFq10cFC2QJ-1" target="BvmSv9PaKKFq10cFC2QJ-2">
          <mxGeometry relative="1" as="geometry" />
        </mxCell>
        <mxCell id="BvmSv9PaKKFq10cFC2QJ-1" value="int r, double keliling luas" style="shape=hexagon;perimeter=hexagonPerimeter2;whiteSpace=wrap;html=1;fixedSize=1;" vertex="1" parent="WIyWlLk6GJQsqaUBKTNV-1">
          <mxGeometry x="354" y="160" width="120" height="80" as="geometry" />
        </mxCell>
        <mxCell id="BvmSv9PaKKFq10cFC2QJ-10" style="edgeStyle=orthogonalEdgeStyle;rounded=0;orthogonalLoop=1;jettySize=auto;html=1;entryX=0.5;entryY=0;entryDx=0;entryDy=0;" edge="1" parent="WIyWlLk6GJQsqaUBKTNV-1" source="BvmSv9PaKKFq10cFC2QJ-2" target="BvmSv9PaKKFq10cFC2QJ-3">
          <mxGeometry relative="1" as="geometry" />
        </mxCell>
        <mxCell id="BvmSv9PaKKFq10cFC2QJ-2" value="input r" style="shape=parallelogram;perimeter=parallelogramPerimeter;whiteSpace=wrap;html=1;fixedSize=1;" vertex="1" parent="WIyWlLk6GJQsqaUBKTNV-1">
          <mxGeometry x="350" y="280" width="120" height="60" as="geometry" />
        </mxCell>
        <mxCell id="BvmSv9PaKKFq10cFC2QJ-11" style="edgeStyle=orthogonalEdgeStyle;rounded=0;orthogonalLoop=1;jettySize=auto;html=1;entryX=0.5;entryY=0;entryDx=0;entryDy=0;" edge="1" parent="WIyWlLk6GJQsqaUBKTNV-1" source="BvmSv9PaKKFq10cFC2QJ-3" target="BvmSv9PaKKFq10cFC2QJ-4">
          <mxGeometry relative="1" as="geometry" />
        </mxCell>
        <mxCell id="BvmSv9PaKKFq10cFC2QJ-3" value="keliling=2*phi*r&lt;br&gt;luas+phi*r*r" style="rounded=1;whiteSpace=wrap;html=1;" vertex="1" parent="WIyWlLk6GJQsqaUBKTNV-1">
          <mxGeometry x="354" y="380" width="120" height="60" as="geometry" />
        </mxCell>
        <mxCell id="BvmSv9PaKKFq10cFC2QJ-12" style="edgeStyle=orthogonalEdgeStyle;rounded=0;orthogonalLoop=1;jettySize=auto;html=1;entryX=0.5;entryY=0;entryDx=0;entryDy=0;" edge="1" parent="WIyWlLk6GJQsqaUBKTNV-1" source="BvmSv9PaKKFq10cFC2QJ-4" target="BvmSv9PaKKFq10cFC2QJ-5">
          <mxGeometry relative="1" as="geometry" />
        </mxCell>
        <mxCell id="BvmSv9PaKKFq10cFC2QJ-4" value="tampilkan keliling dan luas" style="shape=parallelogram;perimeter=parallelogramPerimeter;whiteSpace=wrap;html=1;fixedSize=1;" vertex="1" parent="WIyWlLk6GJQsqaUBKTNV-1">
          <mxGeometry x="354" y="480" width="120" height="60" as="geometry" />
        </mxCell>
        <mxCell id="BvmSv9PaKKFq10cFC2QJ-5" value="FINISH" style="ellipse;whiteSpace=wrap;html=1;" vertex="1" parent="WIyWlLk6GJQsqaUBKTNV-1">
          <mxGeometry x="354" y="590" width="120" height="80" as="geometry" />
        </mxCell>
      </root>
    </mxGraphModel>
  </diagram>
</mxfile>
